<svg width="31" height="31" viewBox="0 0 31 31" fill="none" xmlns="http://www.w3.org/2000/svg">
    <path d="M26.46 4.54A15.397 15.397 0 0 0 15.5 0C11.36 0 7.468 1.612 4.54 4.54A15.398 15.398 0 0 0 0 15.5c0 4.14 1.612 8.032 4.54 10.96A15.397 15.397 0 0 0 15.5 31c4.14 0 8.032-1.612 10.96-4.54A15.396 15.396 0 0 0 31 15.5a15.4 15.4 0 0 0-4.54-10.96zm-2.192 19.728A12.32 12.32 0 0 1 15.5 27.9c-3.312 0-6.426-1.29-8.768-3.632A12.319 12.319 0 0 1 3.1 15.5c0-3.312 1.29-6.426 3.632-8.768A12.318 12.318 0 0 1 15.5 3.1c3.312 0 6.426 1.29 8.768 3.632A12.32 12.32 0 0 1 27.9 15.5a12.32 12.32 0 0 1-3.632 8.768z" fill="#fff"/>
    <path d="M19.712 11.288a1.55 1.55 0 0 0-2.192 0l-2.192 2.192-2.192-2.192a1.55 1.55 0 1 0-2.192 2.192l2.192 2.192-2.192 2.192a1.55 1.55 0 1 0 2.192 2.191l2.192-2.192 2.192 2.192c.303.303.7.454 1.096.454a1.55 1.55 0 0 0 1.096-2.646l-2.192-2.191 2.192-2.192a1.55 1.55 0 0 0 0-2.192z" fill="#fff"/>
</svg>
