<svg width="36" height="36" fill="none" xmlns="http://www.w3.org/2000/svg">
    <path d="m34.69 31.516-7.444-7.406a14.947 14.947 0 0 0 2.985-8.994C30.231 6.802 23.467 0 15.116 0 6.802 0 0 6.764 0 15.116 0 23.467 6.764 30.23 15.116 30.23c3.098 0 6.008-.944 8.427-2.57l7.52 7.52a2.61 2.61 0 0 0 1.814.757 2.61 2.61 0 0 0 1.813-.756 2.648 2.648 0 0 0 0-3.666zm-29.55-16.4c0-5.518 4.496-10.014 9.976-10.014s9.976 4.496 9.976 9.976-4.46 10.014-9.976 10.014c-5.518 0-9.977-4.497-9.977-9.976z" fill="#00459C"/>
</svg>
