<svg width="38" height="38" viewBox="0 0 38 38" fill="none" xmlns="http://www.w3.org/2000/svg">
    <path d="m36.05 32.17-.007-.008-7.141-7.105a15.44 15.44 0 0 0 2.83-8.941C31.731 7.526 24.743.5 16.115.5 7.526.5.5 7.487.5 16.116c0 8.627 6.988 15.615 15.616 15.615 3.055 0 5.932-.889 8.36-2.429l7.233 7.233a3.111 3.111 0 0 0 2.168.903 3.11 3.11 0 0 0 2.167-.903l.007-.006a3.148 3.148 0 0 0 0-4.36zM6.64 16.115c0-5.243 4.274-9.514 9.476-9.514 5.203 0 9.476 4.273 9.476 9.476 0 5.207-4.239 9.514-9.476 9.514-5.24 0-9.477-4.272-9.477-9.476z" fill="#00459C" stroke="#00459C"/>
</svg>
